<svg xmlns="http://www.w3.org/2000/svg" viewBox="0 0 32 32" width="50px" height="50px" baseProfile="basic">
  <path fill="#e6a728" d="M11.651,15.349C11.235,14.313,11,13.185,11,12c0-4.971,4.029-9,9-9s9,4.029,9,9s-4.029,9-9,9 c-1.21,0-2.362-0.242-3.415-0.675L9,28H3v-4L11.651,15.349z" />
  <path fill="#fff" d="M12.844,15.56c0.155,0.311,0.322,0.614,0.515,0.899L3,26.818v-1.414L12.844,15.56z" />
  <path fill="#302529" d="M2,29h7.414L12,26.414V25h2v-2h1.431l1.426-1.508C17.871,21.83,18.925,22,20,22 c5.514,0,10-4.486,10-10S25.514,2,20,2S10,6.486,10,12c0,1.053,0.166,2.09,0.494,3.092L2,23.586V29z M8.586,27H4v-2.586l8.825-8.825 l-0.246-0.613C12.195,14.02,12,13.019,12,12c0-4.411,3.589-8,8-8s8,3.589,8,8s-3.589,8-8,8c-1.045,0-2.066-0.202-3.035-0.6 l-0.635-0.261L14.569,21H12v2h-2v2.586L8.586,27z" />
  <path fill="#fff" d="M23.889,16.596l-8.484-8.485l0.354-0.354C16.891,6.624,18.397,6,20,6s3.109,0.624,4.242,1.757 C25.376,8.891,26,10.397,26,12s-0.624,3.109-1.758,4.243L23.889,16.596z M16.836,8.128l7.035,7.037C24.603,14.274,25,13.167,25,12 c0-1.335-0.521-2.591-1.465-3.536S21.336,7,20,7C18.833,7,17.727,7.397,16.836,8.128z" />
</svg>